<svg xmlns="http://www.w3.org/2000/svg" viewBox="0 0 128 128" role="img" aria-label="Document center logo">
  <defs>
    <linearGradient id="g" x1="22" x2="106" y1="18" y2="112" gradientUnits="userSpaceOnUse">
      <stop stop-color="#7C7AFF"/>
      <stop offset="1" stop-color="#3D7DFF"/>
    </linearGradient>
  </defs>
  <rect width="128" height="128" rx="30" fill="#0F1117"/>
  <rect x="20" y="18" width="88" height="92" rx="22" fill="url(#g)"/>
  <path fill="#fff" d="M41 40h46v8H41zm0 18h46v8H41zm0 18h29v8H41z" opacity=".94"/>
  <path fill="#fff" d="M87 77c7 0 13 6 13 13s-6 13-13 13-13-6-13-13 6-13 13-13Zm0 7a6 6 0 1 0 0 12 6 6 0 0 0 0-12Z"/>
</svg>
